<?xml version="1.0" encoding="UTF-8"?>
<svg id="Camada_1" xmlns="http://www.w3.org/2000/svg" version="1.1" viewBox="0 0 500 500">
  <!-- Generator: Adobe Illustrator 29.8.5, SVG Export Plug-In . SVG Version: 2.1.1 Build 2)  -->
  <defs>
    <style>
      .st0 {
        fill: #f5761f;
      }
    </style>
  </defs>
  <path class="st0" d="M338.4,127.3c20.9-2.5,38,13.2,40,33.6l-.2,180.7c-7,40.7-63.3,41.6-70,.2v-186c3.1-14.3,15.4-26.8,30.1-28.5Z"/>
  <path class="st0" d="M246.4,218.2c17.8-1.9,36.9,11.1,38.9,29.5,3.3,30.1-2.2,66.2-.3,97-7.9,38.4-65.9,36.3-69.8-2.9-3-30,1.8-65.2.5-95.7,3.6-15,15.1-26.2,30.7-27.9Z"/>
  <path class="st0" d="M152.3,299.7c47.8-6.5,54.7,67.1,11.1,72.8-49.9,6.6-57-66.6-11.1-72.8Z"/>
</svg>