<?xml version="1.0" encoding="UTF-8"?>
<svg id="Layer_1" xmlns="http://www.w3.org/2000/svg" version="1.1" viewBox="0 0 463.7 65.8">
  <!-- Generator: Adobe Illustrator 29.8.5, SVG Export Plug-In . SVG Version: 2.1.1 Build 2)  -->
  <path d="M55.9,11.6l-.4-.4c-3.3-3.4-7.9-5.3-12.6-5.3-4.8,0-9.3,1.9-12.6,5.3-.8.9-1.6,1.8-2.3,2.8h0c0,.1-.1.1-.1.2,0,.3.2.5.5.5h.2c2.1-.8,4.4-1.2,6.6-1.2,5,0,9.8,1.9,13.4,5.4h0c0,0,.2.1.4.1h6.8c.3,0,.5-.2.5-.5v-6.6h0c-.1-.1-.1-.2-.2-.4Z"/>
  <path d="M55.6,32.8h-6.9c-3.6,0-6.5-2.7-6.8-6.3h0c0-.3-.2-.5-.5-.5h0c-1.5.1-2.8.7-3.9,1.7h0c-.1,0-.1.1-.2.1h-.1v.2h-.1c0,.1-.1.2-.1.2h-.1c0,.1-.1.2-.1.2h-.1c0,.2,0,.2-.1.2,0,0,0,0,0,0h-.1c0,.2,0,.2-.1.2,0,0,0,0,0,0h-.1c0,.2-.2.3-.2.4,0,0,0,.1-.1.1,0,0,0,0,0,0,0,0,86.7,87.2-.2.2,0,0,0,.1-.1.1,0,0,0,0,0,0v2.5h0c0,3.8,3.1,6.7,6.8,6.8h4.9c.3,0,.5.2.5.5v1.8c0,.3.2.5.5.5h.1c2.9-.6,5.6-1.9,7.9-3.8h0c.1-.1.2-.2.2-.4h0v-4.4c-.1-.4-.4-.6-.6-.6Z"/>
  <path d="M55.2,53.1h-.1c-16.1,6.2-34.2-1.8-40.4-17.9-1.4-3.6-2.1-7.3-2.1-11.2,0-3.9.7-7.7,2.1-11.3h0v-.2c0-.2-.3-.4-.5-.4-.1,0-.4.1-.4.2h0c-5.3,5.4-8.3,12.7-8.2,20.3,0,16.3,13.2,29.6,29.6,29.6,7.6,0,14.9-2.9,20.4-8.1h0c.1-.1.2-.2.2-.4,0-.3-.2-.6-.5-.6,0,0,0,0,0,0Z"/>
  <path d="M118,38.6h16.3c3.4.2,6.3-2.3,6.5-5.7,0-.2,0-.3,0-.5v-.6c0-.3-.3-.6-.6-.6h-22.2c-.3,0-.6.3-.6.6v6.3c.1.3.3.4.6.5Z"/>
  <path d="M141.7,7.8h-23.7c-.3,0-.6.3-.6.6v6.3c0,.3.3.6.6.6h17.7c3.4.2,6.3-2.3,6.5-5.7,0-.2,0-.3,0-.5v-.9c.1-.2-.1-.5-.5-.5Z"/>
  <path d="M141.7,54.8h-28c-4.5,0-7.2-2.6-7.2-7.2V3c0-.3-.3-.6-.6-.6h0c-5.2.1-8.1,3.3-8.1,8.5v42.8c0,5.3,3.2,8.5,8.5,8.5h29.5c3.9,0,6.6-2.6,6.6-6.3v-.6c0-.3-.3-.5-.6-.5Z"/>
  <path d="M197,54.7h0c-2.6-.7-4.4-3.1-4.2-5.8V3.3c0-.2,0-.4-.2-.5h-.1c-.5-.2-1.1-.3-1.7-.2-4.1,0-6.8,2.8-6.8,7.1v45.4c0,4.3,2.7,7.1,6.8,7.1s6.6-2.7,6.6-6.9h0c0-.3-.1-.5-.4-.6Z"/>
  <path d="M234.4,54.8h0c-.4,0-.9.1-1.1.1-4.2.1-6.3-2-8.1-5l-20.5-34.3h0c-.1-.2-.3-.2-.5-.2-.3,0-.6.3-.6.6h0v19l13,21.5c1.7,2.9,4.1,5.6,9.2,5.6s8-2.3,9.1-6.6v-.2c0-.3-.2-.5-.5-.5Z"/>
  <path d="M230.1,37.1c.3,0,.6-.3.6-.6h0V3.3c0-.2-.1-.5-.4-.5h0c-.5-.1-1.1-.2-1.6-.2-4.1,0-6.8,2.8-6.8,7.1v14.4l7.7,12.8c0,.2.2.4.4.4Z"/>
  <path d="M289.9,54.7h0c-2.7-.6-4.2-2.7-4.2-5.8V3.3c0-.3-.2-.5-.5-.5h0c-.5-.2-1.1-.3-1.6-.2-4.1,0-6.8,2.8-6.8,7.1v45.4c0,4.3,2.7,7.1,6.8,7.1s6.6-2.7,6.6-6.9h0c.1-.4-.1-.5-.4-.6Z"/>
  <path d="M374.7,52.4c-.1,0-.2,0-.2.1h-.2c-3.6,1.8-7.5,2.6-11.4,2.5-7.4,0-13.1-2.2-17.2-6.4-4.2-4.4-6.4-10.9-6.4-19.4V2.9c0-.3-.2-.5-.5-.5h0c-.5-.1-1.1-.2-1.6-.2-4.1,0-6.8,2.8-6.8,7.1v25.9c0,17.2,9.1,27.1,24.8,27.1s15.5-3.1,19.6-8.7v-.2h.1c0,0,.1-.2.1-.4.2-.4,0-.6-.4-.6Z"/>
  <path d="M375.1,2.3h0c-.5-.1-1.1-.2-1.6-.2-4.1,0-6.8,2.8-6.8,7.1v26.3c.1,2.8-.4,5.6-1.5,8.2h0v.4c0,.3.3.6.6.6h.2c6.3-1.2,9.5-6.4,9.5-15.2V2.9h0c0-.3-.2-.5-.5-.6Z"/>
  <path d="M433.3,37.5l6.3,1.1c6.8,1.2,7.5,3.7,7.5,5.5h0c0,.5.3.7.6.7h.1c5-.6,8.1-3.2,8.1-6.8s-2.8-5.6-8.6-6.8l-6.3-1.1c-14.6-2.7-17.7-10.6-17.7-16.7,0-3.1.8-6.1,2.6-8.6l.2-.2h0c0-.1.1-.1.1-.2,0-.3-.3-.6-.6-.6h-.5c-6.8,3.2-10.7,9-10.7,15.8.1,9.2,6.8,15.6,18.8,17.8Z"/>
  <path d="M457.4,52.2h-.4c-3.9,1.8-8.1,2.6-12.4,2.6-7.2,0-14.2-2.3-19.9-6.6-1.5-1-2.4-2.6-2.5-4.4h0c0-.2-.1-.5-.4-.5h0c-.6-.1-1.2-.2-1.8-.2-2,0-3.9,1-5,2.7-1.1,1.4-1.6,3.1-1.5,4.9.3,1.9,1.3,3.6,2.9,4.7,5.9,4.5,13.2,6.9,20.6,6.9,9.3,0,16.9-3.2,20.7-8.8v-.2h.1c0,0,0-.2.1-.2,0-.3-.4-.6-.7-.6Z"/>
  <path d="M434.4,12.8c0,.3.2.5.5.5h1c4.1-.1,8,1.2,11.2,3.8,1.2,1,2.8,1.6,4.4,1.6h0c2,0,3.9-1,5-2.7,1-1.2,1.5-2.7,1.5-4.3h0c0-.2-.1-.5-.4-.5h0c-.8-.3-1.5-.6-2.2-1.1-3.4-2.7-7.6-4.2-11.9-4.1-5.4,0-9.2,2.6-9.1,6.3-.1.1,0,.4,0,.5h0Z"/>
</svg>