<?xml version="1.0" encoding="UTF-8"?>
<svg id="Camada_1" xmlns="http://www.w3.org/2000/svg" version="1.1" viewBox="0 0 800 800">
  <!-- Generator: Adobe Illustrator 29.8.5, SVG Export Plug-In . SVG Version: 2.1.1 Build 2)  -->
  <defs>
    <style>
      .st0 {
        fill: #fef863;
      }
    </style>
  </defs>
  <circle class="st0" cx="400" cy="400" r="400"/>
  <path d="M418,184.3c-7.2,0-14.5.3-21.6.3-4.4-.6-7.4,4.5-7.1,8.3-.7,20.3.5,40.6-.3,60.8-.7,16.9-11.1,32-24.5,41.7-10,6.9-22.4,8.7-33.5,13.3,2.4,15.6,8.7,31.2,21.2,41.5,23.8,21.1,64.6,17.2,83.6-8.5,18.9-21.5,9.1-51.6,12.1-77.2,5.7-9.6,18.8-2.6,26.4-9.8-6.8-25-16.2-50.7-34.6-69.6-7.2-.6-14.4-.9-21.6-.8h0ZM209.2,184.4c-39,35.1-57.4,91.3-46.5,142.7,7.7,41.1,33.7,78,69.1,100.1,2.7-4.6,4.6-9.5,1.8-14.6-19-56.4-2.8-122.6,39.8-164.1.3-19.8.9-39.6,0-59.3l-3.8-4.3c-20.1-1-40.2,0-60.3-.4h0ZM567.5,185.5l-4.1,7.1c5.3,18.8,12,37.3,14.4,56.8,11.6,71.1-8.1,146.5-52.4,203.2-36.4,47.1-89,81.6-147,95.6-53.3,13.2-110.5,9-161.6-10.9-1.4,1.6-4.1,4.7-5.5,6.4,53.4,52.7,131.1,79.5,205.6,70.1,61.6-6.6,120.1-37.4,160.8-84.1,38.8-43.8,61.8-101.6,62.6-160.1,2.4-67.8-24.2-136.6-72.9-184.1h0Z"/>
</svg>