<?xml version="1.0" encoding="UTF-8"?>
<svg id="Camada_1" xmlns="http://www.w3.org/2000/svg" version="1.1" viewBox="0 0 1731 909">
  <!-- Generator: Adobe Illustrator 29.8.5, SVG Export Plug-In . SVG Version: 2.1.1 Build 2)  -->
  <defs>
    <style>
      .st0 {
        fill: #faf9fa;
      }

      .st1 {
        fill: #f5761f;
      }
    </style>
  </defs>
  <path class="st1" d="M470.8,324.3c20-2.4,36.3,12.6,38.3,32.2v172.9c-6.8,39-60.7,39.8-67.1.1v-178c2.9-13.7,14.8-25.6,28.8-27.3Z"/>
  <path class="st0" d="M700.9,446.9c-1,1.4-27.5,11.2-31.3,13.2-4.9-13.6-24.2-18.1-36.6-13.6-9.4,3.4-10,12.5-1.3,17.3,11.6,6.3,32.5,7.7,46.3,13.7,16.6,7.2,27.7,21,25.9,39.9-5.5,56.4-106,53.5-118.8,2.7,5.1-.2,28.5-14.2,31-12.6s3.2,5.8,4.6,7.5c8.5,10.5,25.3,14.5,38,10.2,10.8-3.7,12.1-14.5,1.5-19.6-20.6-10-64.9-7.6-69.8-39.2-9-58.2,77.3-66,105.2-30.2,1.2,1.6,6.7,9.2,5.5,10.8Z"/>
  <path class="st0" d="M1198,447c-5.5.7-29.5,14-32.9,11.9s-1.1-3.1-2.1-4.4c-8.1-9.3-30.9-14.4-39-4-9.3,11.9,10.4,15.9,18,18,22.8,6.5,53.7,9.7,57.7,39.3,7.8,57.6-81.1,66.2-110.7,27.7-1.7-2.2-8.4-13.2-6.9-15.4l30.3-13.1c4.1,17.1,39.6,27.4,49.6,13.6s-30.1-21-39.2-23.8c-20.1-6.1-37.2-16.5-36.8-40.2.9-53.1,95.5-54.8,112-9.6Z"/>
  <path class="st0" d="M1486.9,453.9l-32.4,14.1c-22.4-38.8-76.2-11-62.6,31.5,7.1,22.3,36.7,31.9,54.5,16.4,2.9-2.5,7.2-11,9-11,5.8,0,25,13.2,32.5,14-25.4,59.9-114.9,50.5-132.3-11.3-16.3-57.9,34.5-107.6,92-90,17.2,5.3,34.1,18.6,39.2,36.2Z"/>
  <path class="st0" d="M1063,419v30.5c0,.1-1.4,1.5-1.5,1.5h-32.5v58.5c0,1,2.5,5.4,3.5,6.5,6.9,8.3,16.7,5.4,25.5,3l9.9,31.4c-23.9,12.4-57.6,8.5-70.5-17.4-1.3-2.7-5.5-14.1-5.5-16.5v-65.5h-22.5c-.1,0-1.5-1.4-1.5-1.5v-30.5h24v-42h35.5c1.1,0,1.4,2.4,1.6,3.4,1,8.4.2,22.2,0,31.1s-2.1,7.5.5,7.5h33.5Z"/>
  <path class="st0" d="M775,377v40.5c0,.1,1.4,1.5,1.5,1.5h32.5v32h-34v54.5c0,1.5,2.2,7.2,3.2,8.8,2.7,4.5,8.4,7.1,13.5,7.3s12.3-3.5,13.8-1.6c.3,5,10.3,27.7,9.4,30.4-1.6,5.3-29.9,7.1-35.3,6.5-20.5-2.3-40.6-22.4-40.6-43.4v-62.5h-23c.7-10.8-1.6-21.3,0-32h23v-42h36Z"/>
  <path class="st1" d="M382.8,411.3c17.1-1.9,35.3,10.6,37.2,28.2,3.1,28.8-2.1,63.4-.2,92.8-7.6,36.7-63,34.7-66.8-2.8-2.8-28.7,1.7-62.4.4-91.5,3.4-14.3,14.5-25,29.3-26.7Z"/>
  <rect class="st0" x="1295" y="358" width="36" height="197"/>
  <path class="st1" d="M292.8,489.3c45.7-6.2,52.3,64.2,10.7,69.7-47.8,6.3-54.5-63.7-10.7-69.7Z"/>
  <path class="st1" d="M1241.8,508.2c27.2-3.2,36.6,37.3,11,47-33.5,12.7-46.8-42.7-11-47Z"/>
  <path class="st0" d="M951,514.4c.2-34.7,9-78.2-31.3-94.6-25.6-10.4-63.6-6.3-83.7,13.6-1.7,1.7-6.8,7.4-5.5,9.6,1.9,3,19.5,12.2,23.1,16,2.5.3,9.4-7.3,12.8-9.2,19.8-11.3,51.7-4.3,49.7,23.2-20.6-7.5-43-10.1-63.7-1.2-24.5,10.6-34.1,39.3-21.5,62.9,11.2,21,39.1,28.3,61,21.6,9.7-3,17.4-10.1,24.2-17.3v16h35c-.5-3.9.9-7.6,1.1-11.5.3-9.4-1.1-19.7-1.1-29.1ZM911.8,515.3c-11.6,20.9-53.3,21.3-49.8-6.8,1.2-9.7,12.3-14.2,20.8-15.2,5.7-.7,31.2,1.6,33.1,7.4,1,3.1-2.4,11.6-4.1,14.6Z"/>
</svg>